<svg width="20" height="20" viewBox="0 0 20 20" fill="none" xmlns="http://www.w3.org/2000/svg">
<g id="teenyicons:hospital-outline" clip-path="url(#clip0_125_414)">
<path id="Vector" d="M10 0.666644L10.2987 0.0706443C10.206 0.024189 10.1037 0 10 0C9.89631 0 9.79404 0.024189 9.70133 0.0706443L10 0.666644ZM2 4.66664L1.70133 4.07064C1.59074 4.12606 1.49774 4.21116 1.43275 4.31642C1.36776 4.42168 1.33334 4.54294 1.33333 4.66664H2ZM18 4.66664H18.6667C18.6667 4.54294 18.6322 4.42168 18.5672 4.31642C18.5023 4.21116 18.4093 4.12606 18.2987 4.07064L18 4.66664ZM7.33333 14V13.3333H6.66667V14H7.33333ZM12.6667 14H13.3333V13.3333H12.6667V14ZM0 20H20V18.6666H0V20ZM9.70133 0.0706443L1.70133 4.07064L2.29867 5.26264L10.2987 1.26264L9.70133 0.0706443ZM18.2987 4.07064L10.2987 0.0706443L9.70133 1.26264L17.7013 5.26264L18.2987 4.07064ZM9.33333 3.99998V7.33331H10.6667V3.99998H9.33333ZM9.33333 7.33331V10.6666H10.6667V7.33331H9.33333ZM6.66667 7.99998H10V6.66664H6.66667V7.99998ZM10 7.99998H13.3333V6.66664H10V7.99998ZM1.33333 4.66664V19.3333H2.66667V4.66664H1.33333ZM17.3333 4.66664V19.3333H18.6667V4.66664H17.3333ZM8 19.3333V14H6.66667V19.3333H8ZM7.33333 14.6666H12.6667V13.3333H7.33333V14.6666ZM12 14V19.3333H13.3333V14H12Z" fill="#016FEB"/>
</g>
<defs>
<clipPath id="clip0_125_414">
<rect width="20" height="20" fill="white"/>
</clipPath>
</defs>
</svg>
