<svg width="20" height="20" viewBox="0 0 20 20" fill="none" xmlns="http://www.w3.org/2000/svg">
<g id="teenyicons:share-outline" clip-path="url(#clip0_125_429)">
<path id="Vector" d="M5.99999 10.0002H11.3333M14.6667 5.33353L11.3333 9.99353L14.6667 14.6669M19.3333 3.33219C19.3333 4.03944 19.0524 4.71772 18.5523 5.21781C18.0522 5.71791 17.3739 5.99886 16.6667 5.99886C15.9594 5.99886 15.2811 5.71791 14.781 5.21781C14.2809 4.71772 14 4.03944 14 3.33219C14 2.62495 14.2809 1.94667 14.781 1.44658C15.2811 0.946479 15.9594 0.665527 16.6667 0.665527C17.3739 0.665527 18.0522 0.946479 18.5523 1.44658C19.0524 1.94667 19.3333 2.62495 19.3333 3.33219ZM19.3333 16.6562C19.3333 17.3634 19.0524 18.0417 18.5523 18.5418C18.0522 19.0419 17.3739 19.3229 16.6667 19.3229C15.9594 19.3229 15.2811 19.0419 14.781 18.5418C14.2809 18.0417 14 17.3634 14 16.6562C14 15.949 14.2809 15.2707 14.781 14.7706C15.2811 14.2705 15.9594 13.9895 16.6667 13.9895C17.3739 13.9895 18.0522 14.2705 18.5523 14.7706C19.0524 15.2707 19.3333 15.949 19.3333 16.6562ZM5.99999 9.99353C5.99999 10.7008 5.71904 11.379 5.21894 11.8791C4.71884 12.3792 4.04057 12.6602 3.33332 12.6602C2.62608 12.6602 1.9478 12.3792 1.44771 11.8791C0.947608 11.379 0.666656 10.7008 0.666656 9.99353C0.666656 9.28628 0.947608 8.60801 1.44771 8.10791C1.9478 7.60781 2.62608 7.32686 3.33332 7.32686C4.04057 7.32686 4.71884 7.60781 5.21894 8.10791C5.71904 8.60801 5.99999 9.28628 5.99999 9.99353Z" stroke="#016FEB" stroke-linecap="square"/>
</g>
<defs>
<clipPath id="clip0_125_429">
<rect width="20" height="20" fill="white"/>
</clipPath>
</defs>
</svg>
